HIERARCHY
ROOT ETY1
{
	OFFSET 0.000000 0.000000 0.000000
	CHANNELS 6 Xposition Yposition Zposition Xrotation Yrotation Zrotation
	JOINT N_ALL
	{
		OFFSET 0.000000 0.000000 0.000000
		CHANNELS 3 Xrotation Yrotation Zrotation
		JOINT locator2
		{
			OFFSET 0.000000 0.000000 63.674999
			CHANNELS 3 Xrotation Yrotation Zrotation
			JOINT hara
			{
				OFFSET -0.000000 -0.000000 0.472500
				CHANNELS 3 Xrotation Yrotation Zrotation
				JOINT mune
				{
					OFFSET -0.000005 -0.000000 14.647499
					CHANNELS 3 Xrotation Yrotation Zrotation
					JOINT kubi
					{
						OFFSET -0.565367 0.000000 13.797264
						CHANNELS 3 Xrotation Yrotation Zrotation
						JOINT kao
						{
							OFFSET 0.709599 -0.000000 1.686798
							CHANNELS 3 Xrotation Yrotation Zrotation
							JOINT ago
							{
								OFFSET 1.521274 -0.000001 2.195969
								CHANNELS 3 Xrotation Yrotation Zrotation
								End Site
								{
									OFFSET -0.000000 0.000000 0.365990
								}
							}
							JOINT eyebrow
							{
								OFFSET 2.744157 -0.000001 4.250847
								CHANNELS 3 Xrotation Yrotation Zrotation
								End Site
								{
									OFFSET -0.000000 0.000000 0.365990
								}
							}
							JOINT lip
							{
								OFFSET 1.419795 -0.000001 0.927528
								CHANNELS 3 Xrotation Yrotation Zrotation
								End Site
								{
									OFFSET 0.365992 -0.000000 0.000000
								}
							}
						}
					}
					JOINT L_sako
					{
						OFFSET -0.472501 6.525000 10.465401
						CHANNELS 3 Xrotation Yrotation Zrotation
						JOINT L_kata
						{
							OFFSET -0.000001 5.850000 -0.581734
							CHANNELS 3 Xrotation Yrotation Zrotation
							JOINT L_hiji
							{
								OFFSET -0.483016 15.785759 -0.000015
								CHANNELS 3 Xrotation Yrotation Zrotation
								JOINT L_te
								{
									OFFSET 0.611527 17.032738 -0.013641
									CHANNELS 3 Xrotation Yrotation Zrotation
									JOINT LeftHandIndex1
									{
										OFFSET 2.549848 6.470253 0.791817
										CHANNELS 3 Xrotation Yrotation Zrotation
										JOINT LeftHandIndex2
										{
											OFFSET -0.000001 2.289848 0.000000
											CHANNELS 3 Xrotation Yrotation Zrotation
											JOINT LeftHandIndex3
											{
												OFFSET -0.000001 2.268135 0.000000
												CHANNELS 3 Xrotation Yrotation Zrotation
												End Site
												{
													OFFSET 0.000000 0.365993 0.000000
												}
											}
										}
									}
									JOINT LeftHandMiddle1
									{
										OFFSET 0.874708 6.694298 1.118919
										CHANNELS 3 Xrotation Yrotation Zrotation
										JOINT LeftHandMiddle2
										{
											OFFSET -0.000001 2.683815 0.000000
											CHANNELS 3 Xrotation Yrotation Zrotation
											JOINT LeftHandMiddle3
											{
												OFFSET -0.000001 2.217308 0.000000
												CHANNELS 3 Xrotation Yrotation Zrotation
												End Site
												{
													OFFSET -0.000000 0.365993 0.000000
												}
											}
										}
									}
									JOINT LeftHandPinky1
									{
										OFFSET -2.442180 5.931721 0.497902
										CHANNELS 3 Xrotation Yrotation Zrotation
										JOINT LeftHandPinky2
										{
											OFFSET -0.000000 2.137306 0.000000
											CHANNELS 3 Xrotation Yrotation Zrotation
											JOINT LeftHandPinky3
											{
												OFFSET -0.000000 1.836044 0.000000
												CHANNELS 3 Xrotation Yrotation Zrotation
												End Site
												{
													OFFSET 0.000000 0.365993 0.000000
												}
											}
										}
									}
									JOINT LeftHandRing1
									{
										OFFSET -0.853656 6.338440 0.870934
										CHANNELS 3 Xrotation Yrotation Zrotation
										JOINT LeftHandRing2
										{
											OFFSET -0.000001 2.531284 0.000000
											CHANNELS 3 Xrotation Yrotation Zrotation
											JOINT LeftHandRing3
											{
												OFFSET -0.000001 2.217308 0.000000
												CHANNELS 3 Xrotation Yrotation Zrotation
												End Site
												{
													OFFSET -0.000000 0.365993 0.000000
												}
											}
										}
									}
									JOINT LeftHandThumb1
									{
										OFFSET 2.594638 1.377514 -1.567856
										CHANNELS 3 Xrotation Yrotation Zrotation
										JOINT LeftHandThumb2
										{
											OFFSET 1.626614 2.409187 0.000557
											CHANNELS 3 Xrotation Yrotation Zrotation
											JOINT LeftHandThumb3
											{
												OFFSET 0.823900 2.113201 0.000290
												CHANNELS 3 Xrotation Yrotation Zrotation
												End Site
												{
													OFFSET 0.000000 0.365993 0.000000
												}
											}
										}
									}
								}
							}
						}
					}
					JOINT R_sako
					{
						OFFSET -0.472506 -6.525000 10.465546
						CHANNELS 3 Xrotation Yrotation Zrotation
						JOINT R_kata
						{
							OFFSET 0.000002 -5.850000 -0.581696
							CHANNELS 3 Xrotation Yrotation Zrotation
							JOINT R_hiji
							{
								OFFSET -0.483008 -15.785765 -0.000015
								CHANNELS 3 Xrotation Yrotation Zrotation
								JOINT R_te
								{
									OFFSET 0.611537 -17.032732 -0.013748
									CHANNELS 3 Xrotation Yrotation Zrotation
									JOINT RightHandIndex1
									{
										OFFSET 2.550124 -6.470253 0.790878
										CHANNELS 3 Xrotation Yrotation Zrotation
										JOINT RightHandIndex2
										{
											OFFSET 0.000001 -2.289848 0.000000
											CHANNELS 3 Xrotation Yrotation Zrotation
											JOINT RightHandIndex3
											{
												OFFSET 0.000001 -2.268135 0.000000
												CHANNELS 3 Xrotation Yrotation Zrotation
												End Site
												{
													OFFSET 0.000000 -0.365993 0.000000
												}
											}
										}
									}
									JOINT RightHandMiddle1
									{
										OFFSET 0.875098 -6.694302 1.118561
										CHANNELS 3 Xrotation Yrotation Zrotation
										JOINT RightHandMiddle2
										{
											OFFSET 0.000001 -2.683807 0.000000
											CHANNELS 3 Xrotation Yrotation Zrotation
											JOINT RightHandMiddle3
											{
												OFFSET 0.000001 -2.217308 0.000000
												CHANNELS 3 Xrotation Yrotation Zrotation
												End Site
												{
													OFFSET 0.000000 -0.365993 0.000000
												}
											}
										}
									}
									JOINT RightHandPinky1
									{
										OFFSET -2.442005 -5.931721 0.498680
										CHANNELS 3 Xrotation Yrotation Zrotation
										JOINT RightHandPinky2
										{
											OFFSET 0.000000 -2.137306 0.000000
											CHANNELS 3 Xrotation Yrotation Zrotation
											JOINT RightHandPinky3
											{
												OFFSET 0.000000 -1.836044 0.000000
												CHANNELS 3 Xrotation Yrotation Zrotation
												End Site
												{
													OFFSET 0.000000 -0.365993 0.000000
												}
											}
										}
									}
									JOINT RightHandRing1
									{
										OFFSET -0.853352 -6.338440 0.871170
										CHANNELS 3 Xrotation Yrotation Zrotation
										JOINT RightHandRing2
										{
											OFFSET 0.000001 -2.531284 0.000000
											CHANNELS 3 Xrotation Yrotation Zrotation
											JOINT RightHandRing3
											{
												OFFSET 0.000001 -2.217308 0.000000
												CHANNELS 3 Xrotation Yrotation Zrotation
												End Site
												{
													OFFSET 0.000000 -0.365993 0.000000
												}
											}
										}
									}
									JOINT RightHandThumb1
									{
										OFFSET 2.594098 -1.377514 -1.568817
										CHANNELS 3 Xrotation Yrotation Zrotation
										JOINT RightHandThumb2
										{
											OFFSET 1.626616 -2.409184 0.000000
											CHANNELS 3 Xrotation Yrotation Zrotation
											JOINT RightHandThumb3
											{
												OFFSET 0.823900 -2.113201 0.000000
												CHANNELS 3 Xrotation Yrotation Zrotation
												End Site
												{
													OFFSET 0.000000 -0.365993 0.000000
												}
											}
										}
									}
								}
							}
						}
					}
				}
			}
			JOINT koshi
			{
				OFFSET 0.000000 0.000000 0.000000
				CHANNELS 3 Xrotation Yrotation Zrotation
				JOINT L_momo
				{
					OFFSET 0.000005 5.033075 -8.541428
					CHANNELS 3 Xrotation Yrotation Zrotation
					JOINT L_hiza
					{
						OFFSET 0.236263 0.000015 -23.625002
						CHANNELS 3 Xrotation Yrotation Zrotation
						JOINT L_ashi
						{
							OFFSET -0.944986 0.000017 -25.908707
							CHANNELS 3 Xrotation Yrotation Zrotation
							JOINT L_ashi2
							{
								OFFSET 3.767458 0.000001 -3.875652
								CHANNELS 3 Xrotation Yrotation Zrotation
								End Site
								{
									OFFSET 0.365992 0.000000 0.000000
								}
							}
						}
					}
				}
				JOINT R_momo
				{
					OFFSET 0.000001 -5.033065 -8.541435
					CHANNELS 3 Xrotation Yrotation Zrotation
					JOINT R_hiza
					{
						OFFSET 0.236263 0.000015 -23.624998
						CHANNELS 3 Xrotation Yrotation Zrotation
						JOINT R_ashi
						{
							OFFSET -0.944986 0.000017 -25.908707
							CHANNELS 3 Xrotation Yrotation Zrotation
							JOINT R_ashi2
							{
								OFFSET 3.767459 0.000001 -3.875652
								CHANNELS 3 Xrotation Yrotation Zrotation
								End Site
								{
									OFFSET 0.365992 0.000000 0.000000
								}
							}
						}
					}
				}
			}
		}
	}
}
MOTION
Frames: 5
Frame Time: 0.041667
0.000000 0.000000 0.000000 -0.000000 0.000000 -89.999982 -0.000000 0.000000 -0.000000 0.000000 0.000003 -0.000000 -10.792340 8.587180 -20.500903 -3.793353 -2.424721 -4.830357 9.992425 -13.589301 14.306176 -0.693529 2.916162 4.338164 0.000001 11.000377 -0.000001 -0.000073 1.957729 -0.000039 -0.000061 -3.614710 -0.000023 -1.249698 7.262759 -1.975422 -46.844402 -28.947209 29.607675 -0.014925 0.189752 -109.949687 8.943564 6.329146 1.616631 -75.591691 12.146955 0.113913 -97.944045 0.022562 -0.019613 -97.944045 0.022543 -0.019612 -64.481180 0.011251 -0.017880 -96.876944 0.022154 -0.019685 -96.876910 0.022153 -0.019686 -86.069843 -10.604255 -0.019949 -90.768378 0.020043 -0.019801 -104.070274 0.024617 -0.019210 -76.955045 0.015315 -0.019298 -96.333446 0.021960 -0.019699 -96.333439 0.021971 -0.019705 -19.607144 1.336024 4.965913 -0.015452 -0.007494 51.525421 -0.017771 -0.011085 63.862207 4.035128 7.466556 -9.056770 12.375977 -15.054446 -57.766537 0.065231 0.064389 116.848540 4.259700 -16.418530 6.206153 61.168456 4.752218 -0.051310 80.120018 0.000014 0.000040 80.121937 0.000035 0.000041 52.387548 0.000015 0.000045 79.249237 0.000066 0.000037 79.249005 0.000046 0.000032 70.403104 -4.403390 -0.000683 74.251943 0.000049 0.000047 85.133465 0.000041 0.000048 62.523675 0.000043 0.000025 78.804960 0.000053 0.000022 78.804373 0.000056 0.000018 16.006577 1.087647 -0.774245 0.000026 0.000006 -32.091787 0.000035 -0.000027 -42.188368 -8.717789 9.244472 -19.141702 51.581650 -65.158038 25.712068 0.001633 55.549741 -0.165106 -3.320911 5.537922 0.402363 -15.813537 10.024658 -3.883747 -13.978035 18.141741 -20.020031 -0.191908 37.023133 1.833648 1.267344 -1.168872 -0.161635 9.727138 -24.379689 2.557941 
0.000000 0.000000 0.000000 -0.000000 0.000000 -89.999982 -0.000000 0.000000 -0.000000 0.000000 0.000003 -0.000000 -17.638668 12.426579 18.519674 -3.543711 0.916367 1.962572 2.008412 -15.654806 0.858525 -0.065289 -0.043680 -0.043544 0.000000 10.392695 -0.000004 -0.000073 1.924095 -0.000038 -0.000062 -3.699165 -0.000023 -1.606762 8.482872 0.516616 -57.680387 -25.841515 5.138765 0.009314 0.188154 -117.841718 12.214916 0.900209 1.255431 -75.290637 11.828913 0.108951 -97.572264 0.022431 -0.019629 -97.572251 0.022417 -0.019627 -64.238196 0.011174 -0.017844 -96.509214 0.022030 -0.019700 -96.509180 0.022027 -0.019700 -85.742438 -10.326509 -0.019170 -90.425346 0.019926 -0.019802 -103.675209 0.024483 -0.019244 -76.665643 0.015216 -0.019277 -95.967716 0.021840 -0.019714 -95.967723 0.021847 -0.019715 -19.423205 1.337057 4.760731 -0.015361 -0.007382 51.121432 -0.017706 -0.010945 63.412774 -0.822115 8.636885 0.021252 4.694334 -24.323127 -44.924886 0.079216 0.041690 95.037069 17.075625 -41.122858 19.933478 59.018408 3.437312 -0.042632 77.463955 0.000013 0.000035 77.464331 0.000032 0.000037 50.899454 0.000014 0.000044 76.619293 0.000063 0.000033 76.620345 0.000044 0.000032 68.068156 -3.521945 -0.000472 71.788908 0.000049 0.000047 82.309592 0.000041 0.000044 60.744356 0.000038 0.000027 76.189005 0.000043 0.000022 76.190480 0.000057 0.000019 15.474125 1.072536 -0.118408 0.000022 -0.000002 -29.192908 0.000038 -0.000025 -38.952890 -15.922810 12.479644 16.521109 16.208541 -77.149562 6.025525 0.015180 44.221865 0.935255 1.638870 9.741588 -0.144187 2.608453 14.002567 -20.382758 12.009400 21.450749 -40.799189 0.030341 21.834754 1.742826 1.267625 -1.531672 0.009553 1.546756 -7.963400 2.205038 
0.000000 0.000000 0.000000 -0.000000 0.000000 -89.999982 -0.000000 0.000000 -0.000000 0.000000 0.000003 -0.000000 -18.227518 13.342851 34.575876 -2.315543 4.208066 9.331766 -0.751274 -9.645488 -3.401366 -0.109670 -2.514825 -0.590428 0.000003 9.784959 -0.000002 -0.000073 1.889773 -0.000037 -0.000061 -3.782932 -0.000023 -1.523624 9.437656 3.292259 -53.426300 -15.043833 -12.052308 0.026047 0.183403 -122.890102 12.972606 -1.093645 0.684764 -74.992192 11.510949 0.104377 -97.203448 0.022307 -0.019646 -97.203434 0.022291 -0.019646 -63.995198 0.011098 -0.017807 -96.144420 0.021908 -0.019717 -96.144379 0.021900 -0.019715 -85.418264 -10.048209 -0.019407 -90.085120 0.019809 -0.019801 -103.283368 0.024350 -0.019276 -76.376248 0.015121 -0.019253 -95.604986 0.021716 -0.019727 -95.604986 0.021719 -0.019731 -19.240809 1.337750 4.554709 -0.015275 -0.007273 50.717436 -0.017633 -0.010808 62.963354 -13.314989 6.026320 17.008243 13.664946 -28.926787 26.020475 0.066818 -0.063081 21.478686 3.147520 18.414164 4.580222 56.870850 2.578682 -0.034479 74.804867 0.000010 0.000032 74.806677 0.000031 0.000041 49.409360 0.000014 0.000041 73.989411 0.000060 0.000039 73.991658 0.000043 0.000031 65.734704 -2.641080 -0.000130 69.328626 0.000048 0.000052 79.485712 0.000039 0.000047 58.967393 0.000041 0.000023 73.576034 0.000045 0.000025 73.576533 0.000056 0.000017 14.943853 1.057425 0.531473 0.000018 0.000003 -26.294085 0.000031 -0.000025 -35.719690 -16.336131 11.938566 29.042723 -5.122338 -72.905309 -8.628801 0.026272 39.882035 0.766500 6.605840 8.363522 -0.778632 5.719932 12.358730 -20.778583 18.846398 18.717956 -29.394283 0.024236 16.804673 1.653370 0.460820 -1.896694 -0.008619 7.228691 15.224430 -7.751314 
0.000000 0.000000 0.000000 -0.000000 0.000000 -89.999982 -0.000000 0.000000 -0.000000 0.000000 0.000003 -0.000000 -19.270382 14.314260 44.099096 -1.821352 4.776225 13.762473 0.760781 -8.290754 -8.623157 -0.468507 -1.033499 2.120975 -0.000002 9.162152 -0.000000 -0.000076 1.856086 -0.000042 -0.000062 -3.867391 -0.000024 -1.552958 9.560954 4.985974 -40.697945 -9.805894 -38.046083 0.018594 0.180192 -120.489072 13.695854 -0.244091 0.878710 -74.691506 11.193275 0.099864 -96.834693 0.022183 -0.019665 -96.834686 0.022168 -0.019654 -63.752262 0.011019 -0.017772 -95.779674 0.021784 -0.019726 -95.779633 0.021779 -0.019726 -85.094581 -9.770645 -0.019365 -89.742095 0.019693 -0.019801 -102.891520 0.024219 -0.019307 -76.086839 0.015022 -0.019230 -95.242302 0.021590 -0.019739 -95.242302 0.021599 -0.019738 -19.057464 1.338529 4.349197 -0.015191 -0.007169 50.313441 -0.017562 -0.010669 62.513921 -9.121681 2.331551 33.871994 24.296417 -14.645058 62.848935 0.063666 -0.066859 18.252654 3.229427 18.176455 15.133777 54.721099 1.719589 -0.026692 72.148743 0.000010 0.000035 72.149057 0.000027 0.000039 47.921331 0.000010 0.000042 71.362520 0.000058 0.000039 71.362930 0.000038 0.000031 63.398472 -1.759827 -0.000380 66.865544 0.000045 0.000047 76.661886 0.000035 0.000045 57.188064 0.000037 0.000024 70.960017 0.000042 0.000026 70.962585 0.000052 0.000017 14.412970 1.042240 1.185185 0.000023 0.000003 -23.395204 0.000032 -0.000022 -32.486480 -17.332240 13.391382 36.577166 -11.206099 -68.549384 -16.700275 0.035349 33.768575 1.079136 4.408596 10.691506 -0.582045 0.408755 9.700400 -13.223504 21.303198 7.035430 -15.775147 0.020429 25.779060 1.557357 0.189990 -6.463546 -0.168396 20.719273 35.567910 -21.026643 
0.000000 0.000000 0.000000 -0.000000 0.000000 -89.999982 -0.000000 0.000000 -0.000000 0.000000 0.000003 -0.000000 -22.629446 15.041869 57.962850 -0.974900 5.402928 15.346621 4.395815 -11.051410 -13.688009 -0.738079 1.106143 1.133526 -0.000003 8.539349 0.000001 -0.000077 1.821767 -0.000038 -0.000061 -3.951841 -0.000023 -1.325555 9.725392 5.320301 -28.592541 -11.767051 -64.436210 -0.007470 0.178583 -112.116838 8.580049 0.517508 -0.533563 -74.390964 10.875402 0.094601 -96.462837 0.022049 -0.019679 -96.462844 0.022036 -0.019676 -63.509278 0.010950 -0.017731 -95.411896 0.021654 -0.019738 -95.411855 0.021651 -0.019740 -84.768549 -9.492483 -0.019417 -89.399062 0.019572 -0.019801 -102.496407 0.024086 -0.019336 -75.797505 0.014927 -0.019202 -94.876580 0.021461 -0.019749 -94.876573 0.021472 -0.019749 -18.874342 1.339751 4.142963 -0.015098 -0.007060 49.909459 -0.017489 -0.010533 62.064495 2.487137 7.904300 31.567973 24.625182 1.626550 86.432444 0.066818 -0.063081 18.171462 12.348615 8.765143 4.858140 52.575490 0.861064 -0.018956 69.489648 0.000008 0.000030 69.488419 0.000030 0.000036 46.431237 0.000010 0.000040 68.732644 0.000053 0.000039 68.731333 0.000038 0.000027 61.063626 -0.878056 0.000217 64.402509 0.000044 0.000048 73.834803 0.000032 0.000048 55.411088 0.000036 0.000024 68.347039 0.000039 0.000024 68.345714 0.000049 0.000019 13.881833 1.048274 1.838749 0.000017 0.000002 -20.496377 0.000029 -0.000020 -29.253284 -20.403693 13.397465 49.416166 -20.099037 -63.463106 -25.918360 0.042947 26.894068 1.395629 5.409746 13.056014 -0.826017 -2.927117 6.445578 -14.325557 19.234941 -6.395271 -22.514324 0.016118 37.541076 1.462052 1.567086 -11.397638 0.120909 22.006953 44.684600 -20.253538 
